<svg width="754" height="1100" viewBox="0 0 754 1100" fill="none" xmlns="http://www.w3.org/2000/svg">
    <line x1="44.8854" y1="1099.9" x2="752.885" y2="260.903" stroke="#A7001E" stroke-width="0.3"/>
    <line x1="44.8854" y1="870.903" x2="752.885" y2="31.9033" stroke="#A7001E" stroke-width="0.3"/>
    <line x1="44.8854" y1="1099.9" x2="752.885" y2="260.903" stroke="#A7001E" stroke-width="0.3"/>
    <line x1="44.8854" y1="870.903" x2="752.885" y2="31.9033" stroke="#A7001E" stroke-width="0.3"/>
    <line x1="44.929" y1="1099.87" x2="509.929" y2="849.868" stroke="#A7001E" stroke-width="0.3"/>
    <line x1="44.929" y1="870.868" x2="509.929" y2="620.868" stroke="#A7001E" stroke-width="0.3"/>
    <line x1="44.8654" y1="1099.93" x2="457.865" y2="260.934" stroke="#A7001E" stroke-width="0.3"/>
    <line x1="44.8654" y1="870.934" x2="457.865" y2="31.9338" stroke="#A7001E" stroke-width="0.3"/>
    <line x1="428.85" y1="899.995" x2="457.805" y2="260.993" stroke="#A7001E" stroke-width="0.3"/>
    <line x1="428.85" y1="670.995" x2="457.805" y2="31.9931" stroke="#A7001E" stroke-width="0.3"/>
    <line x1="84.8733" y1="849.92" x2="457.873" y2="260.92" stroke="#A7001E" stroke-width="0.3"/>
    <line x1="84.8733" y1="620.92" x2="457.873" y2="31.9198" stroke="#A7001E" stroke-width="0.3"/>
    <line x1="84.929" y1="849.868" x2="724.929" y2="505.868" stroke="#A7001E" stroke-width="0.3"/>
    <line x1="84.929" y1="620.868" x2="724.929" y2="276.868" stroke="#A7001E" stroke-width="0.3"/>
    <line x1="0.886486" y1="789.902" x2="457.841" y2="260.902" stroke="#A7001E" stroke-width="0.3"/>
    <line x1="0.886486" y1="560.902" x2="457.841" y2="31.9019" stroke="#A7001E" stroke-width="0.3"/>
    <line x1="0.950368" y1="789.858" x2="559.95" y2="593.858" stroke="#A7001E" stroke-width="0.3"/>
    <line x1="0.950368" y1="560.858" x2="559.95" y2="364.858" stroke="#A7001E" stroke-width="0.3"/>
    <line x1="251.114" y1="229.903" x2="560.114" y2="593.903" stroke="#A7001E" stroke-width="0.3"/>
    <line x1="251.114" y1="0.902926" x2="560.114" y2="364.903" stroke="#A7001E" stroke-width="0.3"/>
    <line x1="509.853" y1="849.971" x2="559.853" y2="593.971" stroke="#A7001E" stroke-width="0.3"/>
    <line x1="509.853" y1="620.971" x2="559.853" y2="364.971" stroke="#A7001E" stroke-width="0.3"/>
    <line x1="84.8551" y1="849.961" x2="250.855" y2="229.961" stroke="#A7001E" stroke-width="0.3"/>
    <line x1="84.8551" y1="620.961" x2="250.855" y2="0.961242" stroke="#A7001E" stroke-width="0.3"/>
    <line x1="84.9008" y1="849.887" x2="752.901" y2="260.887" stroke="#A7001E" stroke-width="0.3"/>
    <line x1="84.9008" y1="620.887" x2="752.901" y2="31.8875" stroke="#A7001E" stroke-width="0.3"/>
    <line x1="47.0169" y1="535.851" x2="560.017" y2="593.851" stroke="#A7001E" stroke-width="0.3"/>
    <line x1="47.0169" y1="306.851" x2="560.017" y2="364.851" stroke="#A7001E" stroke-width="0.3"/>
    <line x1="46.9934" y1="535.85" x2="724.993" y2="505.85" stroke="#A7001E" stroke-width="0.3"/>
    <line x1="63.0457" y1="64.8571" x2="725.046" y2="276.857" stroke="#A7001E" stroke-width="0.3"/>
    <line x1="62.9928" y1="64.8502" x2="752.993" y2="31.8502" stroke="#A7001E" stroke-width="0.3"/>
    <line x1="46.9456" y1="306.86" x2="752.946" y2="31.8602" stroke="#A7001E" stroke-width="0.3"/>
    <line x1="47.1035" y1="535.891" x2="429.103" y2="899.891" stroke="#A7001E" stroke-width="0.3"/>
    <line x1="47.1035" y1="306.891" x2="429.103" y2="670.891" stroke="#A7001E" stroke-width="0.3"/>
    <line x1="753.134" y1="261.068" x2="429.134" y2="900.068" stroke="#A7001E" stroke-width="0.3"/>
    <line x1="753.134" y1="32.0678" x2="429.134" y2="671.068" stroke="#A7001E" stroke-width="0.3"/>
    <line x1="1.00349" y1="789.85" x2="560.003" y2="802.85" stroke="#A7001E" stroke-width="0.3"/>
    <line x1="1.00349" y1="560.85" x2="560.003" y2="573.85" stroke="#A7001E" stroke-width="0.3"/>
    <line x1="725.131" y1="506.073" x2="560.131" y2="803.073" stroke="#A7001E" stroke-width="0.3"/>
    <line x1="725.131" y1="277.073" x2="560.131" y2="574.073" stroke="#A7001E" stroke-width="0.3"/>
    <line x1="44.9013" y1="1099.89" x2="724.901" y2="505.887" stroke="#A7001E" stroke-width="0.3"/>
    <line x1="44.9013" y1="870.887" x2="724.901" y2="276.887" stroke="#A7001E" stroke-width="0.3"/>
</svg>
