<svg width="520" height="400" viewBox="0 0 520 400" fill="none" xmlns="http://www.w3.org/2000/svg">
    <path d="M242.408 259.816L246 245.408L260.408 249L256.816 263.409L242.408 259.816Z" fill="#105260"/>
    <path d="M410.408 260.317L414 274.725L428.408 271.133L424.816 256.725L410.408 260.317Z" fill="#105260"/>
    <path d="M109.338 127.816L105.746 113.408L91.3379 117L94.9303 131.409L109.338 127.816Z" fill="#105260"/>
    <path d="M88.4079 375.816L92.0003 361.408L106.408 365L102.816 379.409L88.4079 375.816Z" fill="#105260"/>
    <path d="M266.408 387.816L270 373.408L284.408 377L280.816 391.409L266.408 387.816Z" fill="#105260"/>
    <path d="M446.338 237.816L442.746 223.408L428.338 227L431.93 241.409L446.338 237.816Z" fill="#105260"/>
    <path d="M446.338 237.816L442.746 223.408L428.338 227L431.93 241.409L446.338 237.816Z" fill="#105260"/>
    <path d="M306.796 263.659L301.474 249.796L315.337 244.474L320.659 258.337L306.796 263.659Z" fill="#105260"/>
    <path d="M44.9505 131.659L50.272 117.796L36.409 112.474L31.0875 126.337L44.9505 131.659Z" fill="#105260"/>
    <path d="M152.796 379.659L147.474 365.796L161.337 360.474L166.659 374.337L152.796 379.659Z" fill="#105260"/>
    <path d="M360.95 142.659L366.272 128.796L352.409 123.474L347.088 137.337L360.95 142.659Z" fill="#105260"/>
    <path d="M381.95 241.659L387.272 227.796L373.409 222.474L368.088 236.337L381.95 241.659Z" fill="#105260"/>
    <path d="M360.95 142.659L366.272 128.796L352.409 123.474L347.088 137.337L360.95 142.659Z" fill="#105260"/>
    <path d="M381.95 241.659L387.272 227.796L373.409 222.474L368.088 236.337L381.95 241.659Z" fill="#105260"/>
    <path d="M206.408 216L210 230.408L224.408 226.816L220.816 212.408L206.408 216Z" fill="#105260"/>
    <path d="M374.408 304.133L378 289.725L392.408 293.317L388.816 307.725L374.408 304.133Z" fill="#105260"/>
    <path d="M145.338 84.0002L141.746 98.4084L127.338 94.816L130.93 80.4079L145.338 84.0002Z" fill="#105260"/>
    <path d="M145.338 84.0002L141.746 98.4084L127.338 94.816L130.93 80.4079L145.338 84.0002Z" fill="#105260"/>
    <path d="M52.4079 332L56.0003 346.408L70.4084 342.816L66.8161 328.408L52.4079 332Z" fill="#105260"/>
    <path d="M482.338 194L478.746 208.408L464.338 204.816L467.93 190.408L482.338 194Z" fill="#105260"/>
    <path d="M482.338 194L478.746 208.408L464.338 204.816L467.93 190.408L482.338 194Z" fill="#105260"/>
    <path d="M20.4079 317.816L24.0003 303.408L38.4084 307L34.8161 321.409L20.4079 317.816Z" fill="#105260"/>
    <path d="M198.408 329.816L202 315.408L216.408 319L212.816 333.409L198.408 329.816Z" fill="#105260"/>
    <path d="M493.338 80.8162L489.746 66.408L475.338 70.0004L478.93 84.4085L493.338 80.8162Z" fill="#105260"/>
    <path d="M493.338 80.8162L489.746 66.408L475.338 70.0004L478.93 84.4085L493.338 80.8162Z" fill="#105260"/>
    <path d="M198.338 183.816L194.746 169.408L180.338 173L183.93 187.409L198.338 183.816Z" fill="#105260"/>
    <path d="M171.338 19.8162L167.746 5.40802L153.338 9.00038L156.93 23.4085L171.338 19.8162Z" fill="#105260"/>
    <path d="M26.4079 267.816L30.0003 253.408L44.4084 257L40.8161 271.409L26.4079 267.816Z" fill="#105260"/>
    <path d="M508.338 129.816L504.746 115.408L490.338 119L493.93 133.409L508.338 129.816Z" fill="#105260"/>
    <path d="M487.409 369.133L483.816 354.724L469.408 358.317L473 372.725L487.409 369.133Z" fill="#105260"/>
    <path d="M421.409 369.317L417.816 383.725L403.408 380.133L407 365.725L421.409 369.317Z" fill="#105260"/>
    <path d="M229.338 24.0007L232.93 38.4089L247.338 34.8165L243.746 20.4084L229.338 24.0007Z" fill="#105260"/>
    <path d="M295.338 23.8162L298.93 9.40802L313.338 13.0004L309.746 27.4085L295.338 23.8162Z" fill="#105260"/>
    <path d="M229.338 24.0007L232.93 38.4089L247.338 34.8165L243.746 20.4084L229.338 24.0007Z" fill="#105260"/>
    <path d="M295.338 23.8162L298.93 9.40802L313.338 13.0004L309.746 27.4085L295.338 23.8162Z" fill="#105260"/>
    <path d="M165.409 267.001L161.816 281.409L147.408 277.817L151 263.408L165.409 267.001Z" fill="#105260"/>
    <path d="M99.4085 266.816L95.8161 252.408L81.408 256L85.0004 270.409L99.4085 266.816Z" fill="#105260"/>
    <path d="M348.338 30.0007L351.93 44.4089L366.338 40.8165L362.746 26.4084L348.338 30.0007Z" fill="#105260"/>
    <path d="M414.338 29.8162L417.93 15.408L432.338 19.0004L428.746 33.4085L414.338 29.8162Z" fill="#105260"/>
    <path d="M348.338 30.0007L351.93 44.4089L366.338 40.8165L362.746 26.4084L348.338 30.0007Z" fill="#105260"/>
    <path d="M414.338 29.8162L417.93 15.408L432.338 19.0004L428.746 33.4085L414.338 29.8162Z" fill="#105260"/>
    <path d="M188.161 257.508L194.67 244.161L208.017 250.671L201.507 264.017L188.161 257.508Z" fill="#105260"/>
    <path d="M356.161 262.626L362.67 275.972L376.017 269.463L369.507 256.116L356.161 262.626Z" fill="#105260"/>
    <path d="M163.585 125.508L157.076 112.161L143.73 118.671L150.239 132.017L163.585 125.508Z" fill="#105260"/>
    <path d="M34.1609 373.508L40.6704 360.161L54.0168 366.671L47.5073 380.017L34.1609 373.508Z" fill="#105260"/>
    <path d="M212.161 385.508L218.67 372.161L232.017 378.671L225.507 392.017L212.161 385.508Z" fill="#105260"/>
    <path d="M500.585 235.508L494.076 222.161L480.73 228.671L487.239 242.017L500.585 235.508Z" fill="#105260"/>
    <path d="M500.585 235.508L494.076 222.161L480.73 228.671L487.239 242.017L500.585 235.508Z" fill="#105260"/>
    <path d="M266.516 171.551L277.551 181.488L287.487 170.452L276.452 160.516L266.516 171.551Z" fill="#105260"/>
    <path d="M434.516 348.582L445.551 338.646L455.487 349.681L444.452 359.617L434.516 348.582Z" fill="#105260"/>
    <path d="M85.2302 39.5515L74.1951 49.4876L64.259 38.4524L75.2941 28.5164L85.2302 39.5515Z" fill="#105260"/>
    <path d="M282.23 44.5515L271.195 54.4876L261.259 43.4524L272.294 33.5164L282.23 44.5515Z" fill="#105260"/>
    <path d="M85.2302 39.5515L74.1951 49.4876L64.259 38.4524L75.2941 28.5164L85.2302 39.5515Z" fill="#105260"/>
    <path d="M282.23 44.5515L271.195 54.4876L261.259 43.4524L272.294 33.5164L282.23 44.5515Z" fill="#105260"/>
    <path d="M112.516 287.551L123.551 297.488L133.487 286.452L122.452 276.516L112.516 287.551Z" fill="#105260"/>
    <path d="M290.516 299.551L301.551 309.488L311.487 298.452L300.452 288.516L290.516 299.551Z" fill="#105260"/>
    <path d="M401.23 50.5515L390.195 60.4876L380.259 49.4524L391.294 39.5164L401.23 50.5515Z" fill="#105260"/>
    <path d="M422.23 149.551L411.195 159.488L401.259 148.452L412.294 138.516L422.23 149.551Z" fill="#105260"/>
    <path d="M401.23 50.5515L390.195 60.4876L380.259 49.4524L391.294 39.5164L401.23 50.5515Z" fill="#105260"/>
    <path d="M422.23 149.551L411.195 159.488L401.259 148.452L412.294 138.516L422.23 149.551Z" fill="#105260"/>
    <path d="M224.621 184.708L210.096 181.621L213.184 167.096L227.708 170.183L224.621 184.708Z" fill="#105260"/>
    <path d="M127.125 52.708L141.65 49.6207L138.563 35.096L124.038 38.1833L127.125 52.708Z" fill="#105260"/>
    <path d="M127.125 52.708L141.65 49.6207L138.563 35.096L124.038 38.1833L127.125 52.708Z" fill="#105260"/>
    <path d="M70.621 300.708L56.0962 297.621L59.1836 283.096L73.7083 286.183L70.621 300.708Z" fill="#105260"/>
    <path d="M248.621 312.708L234.096 309.621L237.184 295.096L251.708 298.183L248.621 312.708Z" fill="#105260"/>
    <path d="M443.125 63.708L457.65 60.6207L454.563 46.096L440.038 49.1833L443.125 63.708Z" fill="#105260"/>
    <path d="M464.125 162.708L478.65 159.621L475.563 145.096L461.038 148.183L464.125 162.708Z" fill="#105260"/>
    <path d="M443.125 63.708L457.65 60.6207L454.563 46.096L440.038 49.1833L443.125 63.708Z" fill="#105260"/>
    <path d="M464.125 162.708L478.65 159.621L475.563 145.096L461.038 148.183L464.125 162.708Z" fill="#105260"/>
    <path d="M148.125 166.708L162.65 163.621L159.563 149.096L145.038 152.183L148.125 166.708Z" fill="#105260"/>
    <path d="M289.142 204.735L301.735 212.604L309.604 200.011L297.011 192.142L289.142 204.735Z" fill="#105260"/>
    <path d="M62.6039 72.7349L50.0111 80.6038L42.1422 68.011L54.735 60.1421L62.6039 72.7349Z" fill="#105260"/>
    <path d="M259.604 77.7349L247.011 85.6038L239.142 73.011L251.735 65.1421L259.604 77.7349Z" fill="#105260"/>
    <path d="M62.6039 72.7349L50.0111 80.6038L42.1422 68.011L54.735 60.1421L62.6039 72.7349Z" fill="#105260"/>
    <path d="M259.604 77.7349L247.011 85.6038L239.142 73.011L251.735 65.1421L259.604 77.7349Z" fill="#105260"/>
    <path d="M135.142 320.735L147.735 328.604L155.604 316.011L143.011 308.142L135.142 320.735Z" fill="#105260"/>
    <path d="M399.604 182.735L387.011 190.604L379.142 178.011L391.735 170.142L399.604 182.735Z" fill="#105260"/>
    <path d="M399.604 182.735L387.011 190.604L379.142 178.011L391.735 170.142L399.604 182.735Z" fill="#105260"/>
    <path d="M83.6039 186.735L71.0111 194.604L63.1422 182.011L75.735 174.142L83.6039 186.735Z" fill="#105260"/>
    <path d="M321.142 221.011L333.735 213.142L341.604 225.735L329.011 233.604L321.142 221.011Z" fill="#105260"/>
    <path d="M489.142 299.122L501.735 306.991L509.604 294.398L497.011 286.529L489.142 299.122Z" fill="#105260"/>
    <path d="M30.6039 89.0112L18.0111 81.1423L10.1422 93.7351L22.735 101.604L30.6039 89.0112Z" fill="#105260"/>
    <path d="M227.604 94.0112L215.011 86.1423L207.142 98.7351L219.735 106.604L227.604 94.0112Z" fill="#105260"/>
    <path d="M30.6039 89.0112L18.0111 81.1423L10.1422 93.7351L22.735 101.604L30.6039 89.0112Z" fill="#105260"/>
    <path d="M227.604 94.0112L215.011 86.1423L207.142 98.7351L219.735 106.604L227.604 94.0112Z" fill="#105260"/>
    <path d="M345.142 349.011L357.735 341.142L365.604 353.735L353.011 361.604L345.142 349.011Z" fill="#105260"/>
    <path d="M346.604 100.011L334.011 92.1423L326.142 104.735L338.735 112.604L346.604 100.011Z" fill="#105260"/>
    <path d="M346.604 100.011L334.011 92.1423L326.142 104.735L338.735 112.604L346.604 100.011Z" fill="#105260"/>
    <path d="M51.6039 203.011L39.0111 195.142L31.1422 207.735L43.735 215.604L51.6039 203.011Z" fill="#105260"/>
    <path d="M422.494 298.599L436.534 293.765L441.368 307.805L427.328 312.64L422.494 298.599Z" fill="#105260"/>
    <path d="M294.253 94.5339L280.212 99.3683L275.378 85.3281L289.418 80.4936L294.253 94.5339Z" fill="#105260"/>
    <path d="M294.253 94.5339L280.212 99.3683L275.378 85.3281L289.418 80.4936L294.253 94.5339Z" fill="#105260"/>
    <path d="M278.494 349.534L292.534 354.368L297.368 340.328L283.328 335.494L278.494 349.534Z" fill="#105260"/>
    <path d="M413.253 100.534L399.212 105.368L394.378 91.3281L408.418 86.4936L413.253 100.534Z" fill="#105260"/>
    <path d="M413.253 100.534L399.212 105.368L394.378 91.3281L408.418 86.4936L413.253 100.534Z" fill="#105260"/>
    <path d="M118.253 203.534L104.212 208.368L99.3779 194.328L113.418 189.494L118.253 203.534Z" fill="#105260"/>
</svg>
