<svg width="33" height="32" viewBox="0 0 33 32" fill="none" xmlns="http://www.w3.org/2000/svg">
    <path d="M13 25.5L13 15.5C13 14.9477 13.4478 14.5 14 14.5H19C19.5523 14.5 20 14.9477 20 15.5L20 25.5M13 25.5L13 21C13 20.4477 12.5523 20 12 20H7.00043C6.44798 20 6.00019 20.448 6.00043 21.0004L6.00193 24.5004C6.00216 25.0525 6.44981 25.5 7.00193 25.5H13ZM13 25.5H20M20 25.5L20 8C20 7.44771 20.4478 7 21 7H26C26.5523 7 27 7.44772 27 8L27 24.5C27 25.0523 26.5523 25.5 26 25.5H20Z" stroke="#E42B31" stroke-width="2" stroke-linecap="round" stroke-linejoin="round"/>
</svg>
