<svg width="33" height="32" viewBox="0 0 33 32" fill="none" xmlns="http://www.w3.org/2000/svg">
    <path d="M7.95001 25.5999C8.56491 24.9113 11.4447 21.7422 12.2887 21.7422H21.2119C22.4348 21.7422 24.9313 24.3691 25.55 25.2951M29.55 15.9999C29.55 23.0692 23.8193 28.7999 16.75 28.7999C9.68077 28.7999 3.95001 23.0692 3.95001 15.9999C3.95001 8.93071 9.68077 3.19995 16.75 3.19995C23.8193 3.19995 29.55 8.93071 29.55 15.9999ZM21.3351 11.6372C21.3351 9.19521 19.2736 7.19995 16.7504 7.19995C14.2272 7.19995 12.1657 9.19521 12.1657 11.6372C12.1657 14.0792 14.2272 16.0745 16.7504 16.0745C19.2736 16.0745 21.3351 14.0792 21.3351 11.6372Z" stroke="#E42B31" stroke-width="2"/>
</svg>
